<svg width="561" height="60" viewBox="0 0 561 60" fill="none" xmlns="http://www.w3.org/2000/svg">
<path d="M20.6999 51.6705L10.4384 11.9336L0.824528 49.494C0.759266 49.7549 0.756481 50.0267 0.81644 50.2888C0.8764 50.5509 0.997474 50.7963 1.17046 51.0062C1.34344 51.2162 1.56376 51.3852 1.81459 51.5003C2.06541 51.6154 2.34014 51.6736 2.61778 51.6705H20.6999Z" fill="#97E8B8" stroke="#212189" stroke-width="1.5" stroke-linecap="round" stroke-linejoin="round"/>
<path d="M40.9228 11.9336H10.4473L11.852 19.542H42.3276L40.9228 11.9336Z" fill="#2ABC7A" stroke="#212189" stroke-width="1.5" stroke-linecap="round" stroke-linejoin="round"/>
<path d="M42.3183 19.5391H11.8428L17.2624 48.9228C17.4118 49.6972 17.8378 50.3962 18.466 50.8978C19.0942 51.3995 19.8847 51.6719 20.6995 51.6676H46.1838C46.4336 51.6694 46.6807 51.6185 46.9079 51.5183C47.1351 51.4181 47.3369 51.2711 47.4992 51.0876C47.6614 50.9042 47.7803 50.6886 47.8473 50.4561C47.9144 50.2235 47.9281 49.9796 47.8875 49.7414L42.3183 19.5391Z" fill="white" stroke="#212189" stroke-width="1.5" stroke-linecap="round" stroke-linejoin="round"/>
<path d="M12.8486 11.8547C12.8483 11.3373 12.9558 10.8251 13.1647 10.3487C13.3736 9.87226 13.6797 9.44144 14.0646 9.08189C14.4496 8.72235 14.9056 8.44145 15.4053 8.25598C15.905 8.0705 16.4382 7.98425 16.9731 8.00236C17.508 7.98425 18.0413 8.0705 18.541 8.25598C19.0407 8.44145 19.4966 8.72235 19.8816 9.08189C20.2665 9.44144 20.5726 9.87226 20.7815 10.3487C20.9904 10.8251 21.098 11.3373 21.0976 11.8547C21.0913 12.3681 20.9789 12.8751 20.767 13.3459C20.5551 13.8166 20.2481 14.2417 19.8638 14.5962C19.4795 14.9506 19.0259 15.2272 18.5295 15.4097C18.033 15.5922 17.5039 15.6769 16.9731 15.6589" stroke="#212189" stroke-width="1.5" stroke-linecap="round" stroke-linejoin="round"/>
<path d="M21.0986 11.8547C21.0983 11.3373 21.2058 10.8251 21.4148 10.3487C21.6237 9.87226 21.9298 9.44144 22.3147 9.08189C22.6997 8.72235 23.1556 8.44145 23.6553 8.25598C24.155 8.0705 24.6882 7.98425 25.2232 8.00236C25.7581 7.98425 26.2913 8.0705 26.791 8.25598C27.2907 8.44145 27.7467 8.72235 28.1316 9.08189C28.5166 9.44144 28.8226 9.87226 29.0316 10.3487C29.2405 10.8251 29.348 11.3373 29.3477 11.8547C29.3414 12.3681 29.229 12.8751 29.0171 13.3459C28.8052 13.8166 28.4981 14.2417 28.1138 14.5962C27.7295 14.9506 27.2759 15.2272 26.7795 15.4097C26.2831 15.5922 25.7539 15.6769 25.2232 15.6589" stroke="#212189" stroke-width="1.5" stroke-linecap="round" stroke-linejoin="round"/>
<path d="M29.3457 11.8547C29.3454 11.3373 29.4528 10.8251 29.6618 10.3487C29.8707 9.87226 30.1768 9.44144 30.5617 9.08189C30.9467 8.72235 31.4026 8.44145 31.9023 8.25598C32.402 8.0705 32.9352 7.98425 33.4702 8.00236C34.003 7.99215 34.5327 8.08385 35.0288 8.27217C35.5249 8.46049 35.9775 8.74172 36.3608 9.0997C36.7441 9.45769 37.0505 9.88538 37.2622 10.3582C37.474 10.831 37.5869 11.3396 37.5947 11.8547C37.5686 12.8876 37.1196 13.8682 36.3463 14.5815C35.5731 15.2947 34.5387 15.6822 33.4702 15.6589" stroke="#212189" stroke-width="1.5" stroke-linecap="round" stroke-linejoin="round"/>
<path d="M11.8428 19.5391H42.3183C42.3183 19.5391 44.012 31.0383 48.6347 31.7992L50.6272 36.4316H27.6235C22.8415 36.4316 18.6572 34.8425 16.1466 31.4621C14.0744 28.6499 12.849 26.1555 11.8428 19.5391Z" fill="white" stroke="#212189" stroke-width="1.5" stroke-linecap="round" stroke-linejoin="round"/>
<path d="M27.624 36.433C29.2584 36.5339 30.8681 36.0082 32.1045 34.9699C33.3408 33.9316 34.1042 32.4642 34.2292 30.8856C34.3323 30.535 34.5591 30.2304 34.8703 30.0245C35.1815 29.8187 35.5575 29.7247 35.9329 29.7588H57.5716C58.4483 29.7588 59.1059 30.3463 58.9863 31.0108C57.9901 36.8953 51.1159 36.433 51.1159 36.433H27.624Z" fill="white" stroke="#212189" stroke-width="1.5" stroke-linecap="round" stroke-linejoin="round"/>
<path d="M38.7034 49.4738C41.1873 49.1343 42.8562 46.5026 42.431 43.5959C42.0057 40.6892 39.6474 38.6081 37.1635 38.9477C34.6796 39.2872 33.0107 41.9189 33.4359 44.8256C33.8611 47.7323 36.2194 49.8134 38.7034 49.4738Z" fill="#A8A9FC"/>
<path d="M26.1754 31.4675C28.1301 29.9725 28.1566 26.8567 26.2346 24.5083C24.3125 22.1598 21.1698 21.468 19.2151 22.963C17.2604 24.458 17.2339 27.5737 19.1559 29.9222C21.078 32.2706 24.2207 32.9625 26.1754 31.4675Z" fill="#A8A9FC"/>
<path d="M35.165 41.5781L40.4153 46.172" stroke="#212189" stroke-width="1.5" stroke-linecap="round" stroke-linejoin="round"/>
<path d="M39.6284 40.9492L35.9521 46.8048" stroke="#212189" stroke-width="1.5" stroke-linecap="round" stroke-linejoin="round"/>
<path d="M19.6133 24.5586L25.7204 29.8363" stroke="#212189" stroke-width="1.5" stroke-linecap="round" stroke-linejoin="round"/>
<path d="M24.1464 24.5586L21.1875 29.8363" stroke="#212189" stroke-width="1.5" stroke-linecap="round" stroke-linejoin="round"/>
</svg>
