<svg width="288" height="184" viewBox="0 0 288 184" fill="none" xmlns="http://www.w3.org/2000/svg">
<g clip-path="url(#clip0_1200_4840)">
<path d="M181.94 178.43C178.21 178.71 175.87 179.27 175.85 180.37C175.89 180.692 176.022 180.995 176.232 181.242C176.442 181.489 176.719 181.669 177.03 181.76C177.693 181.967 178.387 182.055 179.08 182.02C186.34 182.08 194.16 182.26 201.42 182.32C203.18 182.32 205.23 180.65 202.81 179.78C202.17 179.55 201.99 179.07 201.32 179.05C199.91 178.99 199.24 177.93 197.84 177.8C192.2 177.29 187.58 178 181.94 178.43Z" fill="#212189" stroke="#212189" stroke-width="1.5" stroke-linecap="round" stroke-linejoin="round"/>
<path d="M134.346 101.243L145.843 92.1309L207.678 170.148C208.774 171.53 209.275 173.291 209.073 175.043C208.87 176.795 207.979 178.394 206.597 179.49L205.524 180.341C204.141 181.436 202.381 181.938 200.629 181.735C198.877 181.532 197.277 180.642 196.181 179.26L134.346 101.243V101.243Z" fill="#FF6D50" stroke="#212189" stroke-width="1.5" stroke-linecap="round" stroke-linejoin="round"/>
<path d="M159.73 107.85C159.73 107.85 156.6 117.75 150.84 122.04L142.84 111.92L159.73 107.85Z" fill="#212189" stroke="#212189" stroke-width="1.5" stroke-linecap="round" stroke-linejoin="round"/>
<path d="M157.203 111.397C179.227 87.6219 175.853 48.6846 149.667 24.4279C123.481 0.171289 84.4002 -0.219235 62.3766 23.5557C40.3531 47.3306 43.7272 86.2679 69.9128 110.525C96.0984 134.781 135.18 135.172 157.203 111.397Z" fill="#FF6D50" stroke="#212189" stroke-width="1.5" stroke-linecap="round" stroke-linejoin="round"/>
<path d="M161.197 107.404C183.22 83.6292 179.846 44.6919 153.661 20.4353C127.475 -3.82138 88.3938 -4.21191 66.3703 19.563C44.3468 43.3379 47.7208 82.2752 73.9065 106.532C100.092 130.789 139.173 131.179 161.197 107.404Z" fill="white" stroke="#212189" stroke-width="1.5" stroke-linecap="round" stroke-linejoin="round"/>
<path d="M151.066 98.0192C168.383 79.325 165.729 48.7082 145.139 29.6347C124.548 10.5611 93.8184 10.2536 76.5013 28.9478C59.1843 47.642 61.8378 78.2588 82.4281 97.3323C103.018 116.406 133.749 116.713 151.066 98.0192Z" fill="white" stroke="#212189" stroke-width="1.5" stroke-linecap="round" stroke-linejoin="round"/>
<path d="M75.29 30.29C83.69 21.7 96.29 17.2 110.44 18.99C136.67 22.29 158.58 45.82 159.37 71.5299C159.845 81.3643 156.66 91.0261 150.43 98.65" stroke="#212189" stroke-width="1.5" stroke-linecap="round" stroke-linejoin="round"/>
<path d="M118 63C117.049 60.6299 115.63 58.4759 113.827 56.6667C112.025 54.8574 109.876 53.4301 107.51 52.47C109.871 51.5167 112.016 50.0986 113.818 48.3C115.62 46.5014 117.042 44.359 118 42C118.966 44.3656 120.398 46.512 122.213 48.311C124.027 50.11 126.186 51.5245 128.56 52.47C126.183 53.4272 124.024 54.8528 122.21 56.6618C120.395 58.4708 118.964 60.6263 118 63Z" fill="#4A4AF4" stroke="#212189" stroke-width="1.5" stroke-linecap="round" stroke-linejoin="round"/>
<path d="M112.79 81.51C113.541 81.51 114.15 80.9011 114.15 80.15C114.15 79.3989 113.541 78.79 112.79 78.79C112.039 78.79 111.43 79.3989 111.43 80.15C111.43 80.9011 112.039 81.51 112.79 81.51Z" fill="#4A4AF4" stroke="#212189" stroke-width="1.5" stroke-linecap="round" stroke-linejoin="round"/>
<path d="M103.28 67.06C104.401 67.06 105.31 66.1511 105.31 65.03C105.31 63.9089 104.401 63 103.28 63C102.159 63 101.25 63.9089 101.25 65.03C101.25 66.1511 102.159 67.06 103.28 67.06Z" fill="#4A4AF4" stroke="#212189" stroke-width="1.5" stroke-linecap="round" stroke-linejoin="round"/>
<path d="M68.1501 58.8499C68.3601 61.7099 69.1501 64.7699 71.2301 66.9199C73.3101 69.0699 77.1301 69.7499 78.9501 67.7099C81.1001 65.2799 79.3201 61.2299 79.6001 57.8899C79.9648 55.4274 81.0907 53.1406 82.8201 51.3499C84.5323 49.5983 86.0418 47.6594 87.3201 45.5699C87.9525 44.4602 88.3016 43.2117 88.3365 41.935C88.3714 40.6582 88.091 39.3925 87.5201 38.2499C83.5201 31.1699 76.2601 36.9299 73.4701 40.5799C69.5284 45.8175 67.6364 52.315 68.1501 58.8499V58.8499Z" fill="#F7E3E2"/>
<path d="M139.6 54.39C139.542 56.8278 139.767 59.264 140.27 61.65C141.9 73.27 138 85 130 92.69C128.21 94.4 126.07 96.31 126.35 98.91C126.63 101.51 129.56 103.56 132.22 103.68C134.88 103.8 137.22 102.52 139.35 101.07C143.911 97.8699 147.766 93.7656 150.673 89.0123C153.58 84.259 155.479 78.9583 156.25 73.44C156.846 69.7861 156.734 66.0517 155.92 62.44C154.98 58.68 152.39 53.44 149.2 50.76C144.76 47.1 140.09 49.23 139.6 54.39Z" fill="#F7E3E2"/>
<path d="M110.25 97.9999C109.457 97.9373 108.662 98.1094 107.966 98.4946C107.269 98.8799 106.702 99.4613 106.333 100.167C105.964 100.872 105.811 101.67 105.892 102.462C105.974 103.254 106.286 104.004 106.79 104.62V104.68C107.567 105.644 108.544 106.427 109.655 106.975C110.766 107.522 111.982 107.821 113.22 107.85C114.273 107.94 115.331 107.76 116.295 107.328C117.259 106.896 118.097 106.226 118.73 105.38C122.18 100.1 115.32 98.3199 110.25 97.9999Z" fill="#F7E3E2"/>
</g>
<defs>
<clipPath id="clip0_1200_4840">
<rect width="184" height="184" fill="white" transform="translate(43)"/>
</clipPath>
</defs>
</svg>
