<svg width="73" height="73" viewBox="0 0 73 73" fill="none" xmlns="http://www.w3.org/2000/svg">
<path d="M44.6809 30.0702V33.0002H27.3809V20.2402H44.6809V23.2002" fill="white"/>
<path d="M44.6809 30.0702V33.0002H27.3809V20.2402H44.6809V23.2002" stroke="#212189" stroke-width="1.5" stroke-linecap="round" stroke-linejoin="round"/>
<path d="M22.8496 20.2401H49.3796L36.1196 12.5801L22.8496 20.2401Z" fill="#FF6D50" stroke="#212189" stroke-width="1.5" stroke-linecap="round" stroke-linejoin="round"/>
<path d="M47.16 55.1391L47 53.9991L46.8 52.2891C43.2841 53.2593 39.6467 53.7173 36 53.6491C32.4127 53.7393 28.8315 53.3048 25.37 52.3591L25.17 54.0791L25 55.4591L24.87 56.5591L24 64.3491C26.12 65.4491 30.69 66.2091 36 66.1991C41.31 66.1891 46 65.3891 48.23 64.2691L47.33 56.4991L47.16 55.1391Z" fill="#FF6D50" stroke="#212189" stroke-width="1.5" stroke-linecap="round" stroke-linejoin="round"/>
<path d="M26.7302 40.2006V40.4806L26.3502 43.9006L25.5402 51.1406L25.4702 51.7106V51.8606L25.4102 52.3606C28.8588 53.3025 32.4263 53.737 36.0002 53.6506C39.6607 53.7195 43.3119 53.2581 46.8402 52.2806L46.7702 51.6306V51.4706L46.7002 50.7806L45.9302 44.1906L45.4902 40.3806V40.1406C42.3934 40.8211 39.2308 41.1565 36.0602 41.1406C32.9247 41.1786 29.795 40.8632 26.7302 40.2006V40.2006Z" fill="#F7E3E2" stroke="#212189" stroke-width="1.5" stroke-linecap="round" stroke-linejoin="round"/>
<path d="M44.6305 33H27.4205L26.7305 40.2C29.7703 40.8466 32.8729 41.1518 35.9805 41.11C39.1511 41.1258 42.3137 40.7905 45.4105 40.11L44.7005 33H44.6305Z" fill="#FF6D50" stroke="#212189" stroke-width="1.5" stroke-linecap="round" stroke-linejoin="round"/>
<path d="M65.15 26.6904C65.1432 27.5125 65.0931 28.3336 65 29.1504C65 29.3804 64.93 29.6104 64.91 29.8304C64.8842 30.0494 64.8441 30.2666 64.79 30.4804L64.72 30.7804C64.72 30.9704 64.63 31.1504 64.58 31.3204C64.5613 31.3984 64.5379 31.4752 64.51 31.5504C64.4111 31.8825 64.2366 32.1872 64 32.4404C63.9609 32.4833 63.9132 32.5173 63.86 32.5404C63.8104 32.5494 63.7596 32.5494 63.71 32.5404C63.71 32.5404 63.71 32.5404 63.71 32.5404H63.62L38.15 28.7404C37.5857 28.7379 37.0448 28.5146 36.643 28.1185C36.2412 27.7223 36.0104 27.1846 36 26.6204C36 26.0555 36.2244 25.5137 36.6239 25.1143C37.0233 24.7148 37.5651 24.4904 38.13 24.4904L63.66 20.6504C63.7136 20.6533 63.7654 20.6706 63.81 20.7004C63.8651 20.7254 63.9157 20.7592 63.96 20.8004L64.06 20.9104C64.1156 20.9832 64.1658 21.0601 64.21 21.1404C64.256 21.2173 64.2961 21.2975 64.33 21.3804C64.6661 22.1654 64.8915 22.9933 65 23.8404C65 23.9604 65 24.0804 65 24.2004V24.5204C65 24.8104 65.06 25.1204 65.08 25.4204C65.1 25.7204 65.15 26.2604 65.15 26.6904Z" fill="#E6E6FC" stroke="#212189" stroke-width="1.5" stroke-linecap="round" stroke-linejoin="round"/>
<path d="M36.0703 45.3691V48.4191" stroke="#212189" stroke-width="1.5" stroke-linecap="round" stroke-linejoin="round"/>
<path d="M36.0703 57.7207V60.7707" stroke="#212189" stroke-width="1.5" stroke-linecap="round" stroke-linejoin="round"/>
<path d="M36.1191 12.5808V7.80078" stroke="#212189" stroke-width="1.5" stroke-linecap="round" stroke-linejoin="round"/>
</svg>
