<svg width="184" height="184" viewBox="0 0 184 184" fill="none" xmlns="http://www.w3.org/2000/svg">
<path d="M79.5244 182.948C79.5244 182.948 36.2444 183.178 31.4544 177.078C28.7844 173.658 38.2844 171.238 49.3944 170.638C60.5044 170.038 77.4644 169.388 85.1644 170.878C92.8644 172.368 79.5244 182.948 79.5244 182.948Z" fill="#212189" stroke="#212189" stroke-width="1.5" stroke-linecap="round" stroke-linejoin="round"/>
<path d="M151.974 127.469L150.704 102.019C150.404 96.5387 107.644 50.0187 105.704 49.4687C103.821 48.9825 101.865 48.8503 99.934 49.0787L95.454 17.3087C94.9348 12.4665 92.6234 7.99345 88.974 4.76871L89.074 2.90871L82.774 1.49871C82.334 1.37871 81.894 1.27871 81.434 1.19871H81.374C79.7582 0.933763 78.1099 0.933763 76.494 1.19871C67.304 2.78871 60.774 12.5487 61.854 23.0787L66.014 73.8487C62.88 75.6429 60.2489 78.1983 58.364 81.2787C54.434 87.6387 53.364 96.0387 55.144 106.279L61.664 142.949C65.504 164.439 69.904 181.079 69.904 181.079L79.314 182.969L79.504 179.429L152.174 166.979C152.174 166.979 153.074 149.439 151.974 127.469Z" fill="#2ABC7A" stroke="#212189" stroke-width="1.5" stroke-linecap="round" stroke-linejoin="round"/>
<path d="M79.3146 182.949C79.3146 182.949 74.9146 166.329 71.0746 144.809L64.5446 108.139C62.7546 97.8992 63.8446 89.4892 67.7746 83.1392C69.6595 80.0588 72.2906 77.5034 75.4246 75.7092L71.2446 24.9292C70.1846 14.4392 76.7146 4.67921 85.9046 3.07921C95.0946 1.47921 103.575 8.70921 104.905 19.1792L109.345 50.9892C111.268 50.7551 113.219 50.884 115.095 51.3692C117.04 51.8625 118.877 52.71 120.515 53.8692C122.002 53.1067 123.597 52.5771 125.245 52.2992C127.425 51.9202 129.661 52.0088 131.805 52.5592C134.193 53.2141 136.417 54.361 138.336 55.9265C140.254 57.4919 141.824 59.4412 142.945 61.6492C143.785 61.711 144.619 61.8482 145.435 62.0592C154.365 64.3292 159.875 74.5492 157.705 84.8192L156.995 88.2092C158.813 93.2589 159.878 98.5491 160.155 103.909L161.425 129.369C162.515 151.369 161.625 168.849 161.625 168.849L79.3146 182.949Z" fill="#E8F9EF" stroke="#212189" stroke-width="1.5" stroke-linecap="round" stroke-linejoin="round"/>
<path d="M112.845 70.1679L102.425 71.9579L95.2446 21.0779C94.7346 16.5679 91.1146 13.4679 87.1646 14.1379C83.2146 14.8079 80.4346 19.0179 80.9446 23.5279L85.8846 83.8579C74.5446 84.8579 72.0446 94.0779 74.0846 105.708L80.6146 142.378C83.4446 158.298 96.6146 168.758 110.725 166.378L128.045 163.378C142.165 160.958 152.475 146.488 151.665 130.228L150.395 104.828C149.245 82.7879 131.975 66.8879 112.845 70.1679Z" fill="white"/>
<path d="M134.985 111.439C131.255 110.439 128.985 106.249 129.875 101.959L134.715 78.9585C135.615 74.6685 139.375 71.9585 143.105 72.9085C146.825 73.9085 149.105 78.1085 148.215 82.3885L143.365 105.389C142.465 109.679 138.715 112.389 134.985 111.439Z" fill="white"/>
<path d="M119.784 109.388C115.334 108.258 112.604 103.188 113.684 98.0779L119.464 70.6479C120.544 65.5279 125.024 62.2979 129.464 63.4379C133.904 64.5679 136.634 69.6279 135.564 74.7479L129.774 102.178C128.714 107.298 124.244 110.518 119.784 109.388Z" fill="white"/>
<path d="M103.114 108.199C98.6643 107.069 95.9343 101.999 97.0143 96.879L102.794 69.459C103.874 64.339 108.354 61.109 112.794 62.239C117.244 63.379 119.974 68.439 118.894 73.559L113.114 100.989C112.044 106.079 107.564 109.329 103.114 108.199Z" fill="white"/>
<path d="M112.754 137.079L112.404 140.819L115.074 140.359L114.704 143.579L112.124 144.019L111.754 148.079L108.914 148.569L109.274 144.479L105.804 145.069L105.434 149.169L102.544 149.659L102.914 145.569L100.414 145.999L100.764 142.789L103.204 142.369L103.544 138.629L101.134 139.039L101.474 135.859L103.834 135.459L104.164 131.769L107.034 131.279L106.704 134.959L110.174 134.369L110.514 130.679L113.374 130.189L113.044 133.879L115.754 133.409L115.424 136.589L112.754 137.079ZM109.884 137.569L106.414 138.169L106.084 141.899L109.564 141.309L109.884 137.569Z" fill="#4A4AF4"/>
<path d="M119.554 129.959L118.864 124.769L123.424 117.769L129.594 116.709L132.964 142.079L135.874 141.579L136.874 148.979L122.414 151.459L121.414 144.059L125.014 143.449L123.144 129.359L119.554 129.959Z" fill="#4A4AF4"/>
<path d="M90.8945 104.668C90.8945 104.668 99.4645 109.558 100.095 119.358" stroke="#212189" stroke-width="1.5" stroke-linecap="round" stroke-linejoin="round"/>
<path d="M102.345 71.3979L95.2446 21.0779C94.7346 16.5679 91.1146 13.4679 87.1646 14.1379C83.2146 14.8079 80.4346 19.0179 80.9446 23.5279L85.8846 83.8579C74.5446 84.8579 72.0446 94.0779 74.0846 105.708L80.6146 142.378C83.4446 158.298 96.6146 168.758 110.725 166.378L128.045 163.378C142.165 160.958 152.475 146.488 151.665 130.228L150.395 104.828C150.148 99.776 148.983 94.8114 146.955 90.1779" stroke="#212189" stroke-width="1.5" stroke-linecap="round" stroke-linejoin="round"/>
<path d="M90.8943 104.668L108.894 110.588C113.244 112.078 117.864 109.078 119.244 104.078C120.594 99.0781 118.144 93.7881 113.774 92.3381C113.774 92.3381 95.1743 83.9481 85.9043 83.8281" stroke="#212189" stroke-width="1.5" stroke-linecap="round" stroke-linejoin="round"/>
<path d="M134.985 111.439C131.255 110.439 128.985 106.249 129.875 101.959L134.715 78.9585C135.615 74.6685 139.375 71.9585 143.105 72.9085C146.825 73.9085 149.105 78.1085 148.215 82.3885L143.365 105.389C142.465 109.679 138.715 112.389 134.985 111.439Z" stroke="#212189" stroke-width="1.5" stroke-linecap="round" stroke-linejoin="round"/>
<path d="M114.824 92.6479L119.464 70.6479C120.544 65.5279 125.024 62.2979 129.464 63.4379C133.904 64.5679 136.634 69.6279 135.564 74.7479L129.774 102.178C128.704 107.298 124.224 110.518 119.774 109.388C118.816 109.131 117.919 108.685 117.134 108.078" stroke="#212189" stroke-width="1.5" stroke-linecap="round" stroke-linejoin="round"/>
<path d="M99.1846 86.579L102.795 69.459C103.875 64.339 108.355 61.109 112.795 62.239C117.245 63.379 119.975 68.439 118.895 73.559L114.895 92.559" stroke="#212189" stroke-width="1.5" stroke-linecap="round" stroke-linejoin="round"/>
<path d="M85.6741 175.86C85.9116 175.86 86.1041 175.667 86.1041 175.43C86.1041 175.193 85.9116 175 85.6741 175C85.4367 175 85.2441 175.193 85.2441 175.43C85.2441 175.667 85.4367 175.86 85.6741 175.86Z" fill="#212189" stroke="#212189"/>
<path d="M83.6741 171.86C83.9116 171.86 84.1041 171.667 84.1041 171.43C84.1041 171.193 83.9116 171 83.6741 171C83.4367 171 83.2441 171.193 83.2441 171.43C83.2441 171.667 83.4367 171.86 83.6741 171.86Z" fill="#212189" stroke="#212189"/>
<path d="M87.6741 171.86C87.9116 171.86 88.1041 171.667 88.1041 171.43C88.1041 171.193 87.9116 171 87.6741 171C87.4367 171 87.2441 171.193 87.2441 171.43C87.2441 171.667 87.4367 171.86 87.6741 171.86Z" fill="#212189" stroke="#212189"/>
<path d="M130.43 56.86C130.667 56.86 130.86 56.6675 130.86 56.43C130.86 56.1925 130.667 56 130.43 56C130.193 56 130 56.1925 130 56.43C130 56.6675 130.193 56.86 130.43 56.86Z" fill="#212189" stroke="#212189"/>
<path d="M134.43 58.86C134.667 58.86 134.86 58.6675 134.86 58.43C134.86 58.1925 134.667 58 134.43 58C134.193 58 134 58.1925 134 58.43C134 58.6675 134.193 58.86 134.43 58.86Z" fill="#212189" stroke="#212189"/>
<path d="M82.43 160.86C82.6675 160.86 82.86 160.667 82.86 160.43C82.86 160.193 82.6675 160 82.43 160C82.1925 160 82 160.193 82 160.43C82 160.667 82.1925 160.86 82.43 160.86Z" fill="#212189" stroke="#212189"/>
</svg>
