<svg width="60" height="60" viewBox="0 0 60 60" fill="none" xmlns="http://www.w3.org/2000/svg">
<g clip-path="url(#clip0_1557_2785)">
<path d="M57.5303 3.99822L53.7202 1.26824C53.2919 0.929313 52.7914 0.693475 52.2573 0.579027C51.7232 0.464579 51.1698 0.474556 50.6401 0.608202L3.42017 12.3182C2.66666 12.5038 1.99712 12.9367 1.51855 13.5476C1.03999 14.1585 0.780111 14.9121 0.780274 15.6882V48.9982C0.835675 49.6428 1.04668 50.2644 1.39502 50.8095C1.74336 51.3547 2.21864 51.8071 2.78027 52.1282L6.52026 54.8083L52.3503 40.6583C53.102 40.4707 53.7692 40.0371 54.2458 39.4263C54.7225 38.8156 54.9809 38.063 54.9802 37.2883L57.5303 3.99822Z" fill="#FF6D50" stroke="#212189" stroke-width="1.5" stroke-linecap="round" stroke-linejoin="round"/>
<path d="M54.9097 3.60906L7.67969 15.3091C6.92974 15.4998 6.2644 15.9342 5.78833 16.5442C5.31225 17.1542 5.05255 17.9053 5.0498 18.6791V51.999C5.05125 52.5259 5.1723 53.0455 5.40381 53.5187C5.63531 53.9919 5.97121 54.4065 6.38623 54.731C6.80125 55.0555 7.28446 55.2815 7.79956 55.392C8.31465 55.5025 8.84824 55.4947 9.35986 55.369L56.5798 43.6591C57.3333 43.4735 58.0029 43.0406 58.4814 42.4297C58.96 41.8188 59.2199 41.0651 59.2197 40.2891V6.99908C59.2233 6.46993 59.1058 5.94702 58.8762 5.47027C58.6466 4.99352 58.3109 4.5756 57.895 4.24847C57.4791 3.92133 56.994 3.69363 56.4766 3.58282C55.9591 3.472 55.4231 3.48095 54.9097 3.60906Z" fill="white" stroke="#212189" stroke-width="1.5" stroke-linecap="round" stroke-linejoin="round"/>
<path d="M36.8203 34.1092V40.5092C36.8201 40.934 36.9165 41.3534 37.1023 41.7354C37.2881 42.1174 37.5585 42.4521 37.8928 42.7142C38.2272 42.9763 38.6169 43.1589 39.0322 43.2481C39.4476 43.3373 39.8778 43.3307 40.2903 43.2291L53.8604 39.8692C54.4684 39.7193 55.0086 39.37 55.3948 38.8769C55.7809 38.3838 55.9905 37.7755 55.9902 37.1492V30.7492C55.9908 30.3233 55.8942 29.9029 55.7078 29.52C55.5214 29.137 55.2501 28.8015 54.9146 28.5392C54.579 28.277 54.1879 28.0947 53.7712 28.0063C53.3546 27.9179 52.9234 27.9258 52.5103 28.0292L38.9502 31.3892C38.3421 31.5391 37.8019 31.8884 37.4158 32.3815C37.0296 32.8746 36.82 33.4829 36.8203 34.1092Z" fill="#F7E3E2"/>
<path d="M42.8999 53.9087L46.55 46.9688C46.6467 46.779 46.7883 46.6161 46.9626 46.4941C47.137 46.372 47.3388 46.2946 47.55 46.2687L55.3101 45.1488C55.5773 45.1079 55.8259 44.9871 56.0232 44.8024C56.2205 44.6177 56.3574 44.3777 56.4158 44.1138C56.4742 43.8499 56.4513 43.5744 56.3503 43.3236C56.2494 43.0729 56.0751 42.8586 55.8501 42.7088L34 28.2188L40.3899 53.6188C40.4517 53.8889 40.5959 54.1332 40.8022 54.3181C41.0086 54.503 41.2672 54.6193 41.5425 54.6511C41.8177 54.6829 42.096 54.6287 42.3391 54.4957C42.5822 54.3628 42.7782 54.1576 42.8999 53.9087Z" fill="#FEAA97" stroke="#212189" stroke-width="1.5" stroke-linecap="round" stroke-linejoin="round"/>
<path d="M20.2305 21.7285V33.6285L11.8506 34.4585C12.1506 40.6385 15.7805 45.5285 20.2305 45.5285C24.8805 45.5285 28.6404 40.1985 28.6404 33.6285C28.6404 27.0585 24.8805 21.7285 20.2305 21.7285Z" fill="#A8A9FC" stroke="#212189" stroke-width="1.5" stroke-linecap="round" stroke-linejoin="round"/>
<path d="M13.3701 26.7685L20.23 33.6285V21.7285C17.39 21.7285 14.8901 23.7285 13.3701 26.7685Z" fill="#4A4AF4" stroke="#212189" stroke-width="1.5" stroke-linecap="round" stroke-linejoin="round"/>
<path d="M13.3699 26.7676C12.331 28.9041 11.8005 31.252 11.8198 33.6276C11.8198 33.9076 11.8198 34.1876 11.8198 34.4576L20.1997 33.6276L13.3699 26.7676Z" fill="white" stroke="#212189" stroke-width="1.5" stroke-linecap="round" stroke-linejoin="round"/>
<path d="M35.2803 18.949L53.4004 14.459" stroke="#212189" stroke-width="1.5" stroke-linecap="round" stroke-linejoin="round"/>
<path d="M35.2803 23.4392L53.4004 18.9492" stroke="#212189" stroke-width="1.5" stroke-linecap="round" stroke-linejoin="round"/>
</g>
<defs>
<clipPath id="clip0_1557_2785">
<rect width="60" height="60" fill="white"/>
</clipPath>
</defs>
</svg>
