<svg width="60" height="60" viewBox="0 0 60 60" fill="none" xmlns="http://www.w3.org/2000/svg">
<path d="M26.1056 12.6816L3.10555 22.5815C1.26555 23.3315 0.375556 26.3116 1.10555 29.5216C1.83555 32.7316 4.10543 35.2215 6.22543 34.8315L30.9754 33.6516L26.1056 12.6816Z" fill="#A8A9FC" stroke="#212189" stroke-width="1.5" stroke-linejoin="round"/>
<path d="M22.8352 54.4325L19.3652 33.5625L27.1851 33.0625L33.655 53.2925C33.7715 53.7183 33.7354 54.1713 33.5527 54.5731C33.3701 54.975 33.0524 55.3002 32.655 55.4925L28.8552 57.3725" fill="#2ABC7A"/>
<path d="M22.8352 54.4325L19.3652 33.5625L27.1851 33.0625L33.655 53.2925C33.7715 53.7183 33.7354 54.1713 33.5527 54.5731C33.3701 54.975 33.0524 55.3002 32.655 55.4925L28.8552 57.3725" stroke="#212189" stroke-width="1.5" stroke-linejoin="round"/>
<path d="M27.7854 57.6924L21.0354 57.8524C20.5302 57.8664 20.037 57.6968 19.6472 57.375C19.2574 57.0533 18.9973 56.6012 18.9153 56.1024L15.4453 35.2324L23.2654 34.7324L29.7354 54.9524C29.8349 55.2633 29.8607 55.5932 29.8105 55.9158C29.7604 56.2384 29.6356 56.5447 29.4463 56.8107C29.257 57.0767 29.0086 57.2948 28.7202 57.4479C28.4319 57.601 28.1118 57.6846 27.7854 57.6924Z" fill="#97E8B8" stroke="#212189" stroke-width="1.5" stroke-linejoin="round"/>
<path d="M44.7552 2.3125L9.17512 17.6124V17.6625C6.31512 18.8225 4.94528 23.4325 6.09528 28.3825C7.30528 33.5725 10.8252 37.2024 14.0152 36.5924L52.2652 34.7725L44.7552 2.3125Z" fill="white" stroke="#212189" stroke-width="1.5" stroke-linejoin="round"/>
<path d="M58.455 16.232C60.535 25.232 57.785 33.5021 52.285 34.7721C48.735 35.6021 44.9251 33.2921 42.1151 29.1421C40.431 26.6187 39.2306 23.8042 38.5751 20.842C37.8911 18.002 37.715 15.0635 38.0551 12.1621C38.6951 7.04211 41.125 3.16202 44.745 2.32202C50.245 1.00202 56.375 7.27206 58.455 16.232Z" fill="#E8F9EF" stroke="#212189" stroke-width="1.5" stroke-linejoin="round"/>
<path d="M47.1757 18.0032L48.8159 25.0731L42.1159 29.1832C40.4358 26.6613 39.2356 23.8508 38.5759 20.8932C37.8921 18.0497 37.7161 15.1078 38.0559 12.2031L45.9157 12.9431L47.0959 18.0332L47.1757 18.0032Z" fill="#A8A9FC" stroke="#212189" stroke-width="1.5" stroke-linejoin="round"/>
<path d="M48.8769 25.1927C50.8837 24.7272 51.8791 21.6283 51.1004 18.2712C50.3216 14.9141 48.0636 12.57 46.0568 13.0355C44.0501 13.501 43.0546 16.5998 43.8334 19.9569C44.6121 23.3141 46.8702 25.6582 48.8769 25.1927Z" fill="#4A4AF4" stroke="#212189" stroke-width="1.5" stroke-linejoin="round"/>
</svg>
