<svg width="60" height="60" viewBox="0 0 60 60" fill="none" xmlns="http://www.w3.org/2000/svg">
<g clip-path="url(#clip0_653_3581)">
<path d="M20.6298 29.743L21.0298 29.153C21.4498 28.583 21.8298 28.023 22.1798 27.463C22.3698 27.203 22.5298 26.943 22.6898 26.683C22.7397 26.6221 22.7864 26.5587 22.8298 26.493C26.1098 21.313 27.5998 17.393 27.5698 15.003C27.5969 14.5961 27.5379 14.1881 27.3966 13.8056C27.2553 13.423 27.0349 13.0746 26.7498 12.783C24.9898 11.243 20.5398 12.783 14.0898 18.023L13.6198 18.403L12.5098 19.403L11.7998 20.013C13.4325 22.2222 15.2026 24.3263 17.0998 26.313" fill="#FFCA61"/>
<path d="M20.6298 29.743L21.0298 29.153C21.4498 28.583 21.8298 28.023 22.1798 27.463C22.3698 27.203 22.5298 26.943 22.6898 26.683C22.7397 26.6221 22.7864 26.5587 22.8298 26.493C26.1098 21.313 27.5998 17.393 27.5698 15.003C27.5969 14.5961 27.5379 14.1881 27.3966 13.8056C27.2553 13.423 27.0349 13.0746 26.7498 12.783C24.9898 11.243 20.5398 12.783 14.0898 18.023L13.6198 18.403L12.5098 19.403L11.7998 20.013C13.4325 22.2222 15.2026 24.3263 17.0998 26.313" stroke="#212189" stroke-width="1.55" stroke-linecap="round" stroke-linejoin="round"/>
<path d="M40.35 43.3449C42.8971 44.5458 45.5076 45.6074 48.17 46.5249C48.42 45.9549 48.66 45.3849 48.87 44.8449C48.9573 44.6401 49.0308 44.4296 49.09 44.2149C52.29 36.0549 52.41 31.0949 50.33 29.8649C49.9703 29.6861 49.577 29.5848 49.1756 29.5676C48.7743 29.5504 48.3737 29.6176 48 29.7649C45.68 30.4649 42.37 33.1349 38.42 37.9749L37.66 38.9749C37.28 39.4549 36.89 39.9749 36.5 40.4749" fill="#FFCA61"/>
<path d="M40.35 43.3449C42.8971 44.5458 45.5076 45.6074 48.17 46.5249C48.42 45.9549 48.66 45.3849 48.87 44.8449C48.9573 44.6401 49.0308 44.4296 49.09 44.2149C52.29 36.0549 52.41 31.0949 50.33 29.8649C49.9703 29.6861 49.577 29.5848 49.1756 29.5676C48.7743 29.5504 48.3737 29.6176 48 29.7649C45.68 30.4649 42.37 33.1349 38.42 37.9749L37.66 38.9749C37.28 39.4549 36.89 39.9749 36.5 40.4749" stroke="#212189" stroke-width="1.55" stroke-linecap="round" stroke-linejoin="round"/>
<path d="M21.5703 51.075L9.57031 59.415L14.0903 45.485C14.3322 44.7383 14.7484 44.06 15.3047 43.5062C15.8609 42.9525 16.5411 42.5392 17.2888 42.3007C18.0366 42.0622 18.8304 42.0053 19.6045 42.1348C20.3787 42.2642 21.1108 42.5762 21.7403 43.045V43.045C22.3574 43.5232 22.8539 44.1393 23.1901 44.844C23.5262 45.5486 23.6927 46.3222 23.6762 47.1027C23.6597 47.8833 23.4606 48.6491 23.0949 49.3389C22.7292 50.0287 22.2071 50.6232 21.5703 51.075Z" fill="#FCF9E8" stroke="#212189" stroke-width="1.55" stroke-linecap="round" stroke-linejoin="round"/>
<path d="M19 34.7149C21.9 38.459 25.7209 41.3876 30.09 43.2149L31.09 43.6249C46.61 18.9949 37.87 12.5649 19.01 34.7449L19 34.7149Z" fill="#FFCA61" stroke="#212189" stroke-width="1.55" stroke-linecap="round" stroke-linejoin="round"/>
<path d="M55.1694 8.43485C55.1794 8.46057 55.1794 8.48913 55.1694 8.51485C55.1694 9.17485 55.0694 9.85485 54.9694 10.6048C54.9694 10.9148 54.8794 11.2348 54.8294 11.5548C54.8294 11.7748 54.7494 11.9848 54.7094 12.1948C54.6694 12.4048 54.6194 12.6148 54.5794 12.8248C54.4394 13.4648 54.2794 14.1348 54.0894 14.8248C52.2794 21.5448 48.1894 30.5348 41.4394 41.5948L40.3894 43.2948C38.856 42.5748 37.4227 41.8482 36.0894 41.1148C30.5091 38.0538 25.3211 34.3265 20.6394 30.0148C19.3294 28.8048 18.1594 27.6348 17.1094 26.5248C17.5394 26.0048 17.9694 25.5248 18.4194 25.0148C26.9994 15.2148 34.4294 8.53485 40.3094 4.76485C40.9294 4.37485 41.5294 3.99485 42.0994 3.68485C42.6694 3.37485 43.3494 2.99485 43.9394 2.68485L45.0894 2.21485C45.6494 1.98485 46.1894 1.78485 46.6994 1.61485L47.2094 1.46485C48.4999 1.04831 49.8711 0.94547 51.2094 1.16485C51.3414 1.1853 51.4717 1.21538 51.5994 1.25485C51.95 1.37165 52.2857 1.52941 52.5994 1.72485C52.7098 1.78901 52.8166 1.85911 52.9194 1.93485C53.0894 2.06485 53.2594 2.21485 53.4194 2.36485C53.5794 2.51485 53.7194 2.70485 53.8694 2.88485C53.9732 3.02613 54.0636 3.17678 54.1394 3.33485L54.2394 3.49485C54.9684 5.03436 55.2886 6.73565 55.1694 8.43485Z" fill="white" stroke="#212189" stroke-width="1.55" stroke-linecap="round" stroke-linejoin="round"/>
<path d="M55.1696 8.43472C55.1796 8.46045 55.1796 8.489 55.1696 8.51472C55.1392 9.21107 55.0724 9.90535 54.9696 10.5947C54.9696 10.9147 54.8796 11.2347 54.8296 11.5947L54.7096 12.2347C54.7096 12.4447 54.6196 12.6447 54.5796 12.8547C54.4396 13.4947 54.2696 14.1647 54.0896 14.8547C48.9787 12.2621 44.3244 8.85413 40.3096 4.76472C40.9296 4.36472 41.5296 3.99472 42.1096 3.68472C42.6896 3.37472 43.3496 2.99472 43.9396 2.68472C44.3296 2.49472 44.7096 2.32472 45.0796 2.16472C45.6041 1.93353 46.1417 1.73318 46.6896 1.56472L47.2096 1.41472C48.4994 0.99473 49.8715 0.891824 51.2096 1.11472C51.3453 1.13742 51.4791 1.17085 51.6096 1.21472C51.9629 1.32026 52.2995 1.47512 52.6096 1.67472L52.9296 1.87472C53.1054 2.01064 53.2724 2.1576 53.4296 2.31472C53.5896 2.47472 53.7296 2.65472 53.8796 2.83472C54.0296 3.01472 54.0596 3.12472 54.1496 3.28472C54.1757 3.34013 54.2058 3.3936 54.2396 3.44472C54.9771 4.99926 55.2976 6.71889 55.1696 8.43472V8.43472Z" fill="#FFCA61" stroke="#212189" stroke-width="1.55" stroke-linecap="round" stroke-linejoin="round"/>
<path d="M33.7095 32.1848C35.9296 32.1848 37.7295 30.385 37.7295 28.1648C37.7295 25.9446 35.9296 24.1448 33.7095 24.1448C31.4893 24.1448 29.6895 25.9446 29.6895 28.1648C29.6895 30.385 31.4893 32.1848 33.7095 32.1848Z" fill="#E6E6FC" stroke="#212189" stroke-width="1.55" stroke-linejoin="round"/>
<path d="M41.1499 22.0549C43.3701 22.0549 45.1699 20.2551 45.1699 18.0349C45.1699 15.8147 43.3701 14.0149 41.1499 14.0149C38.9297 14.0149 37.1299 15.8147 37.1299 18.0349C37.1299 20.2551 38.9297 22.0549 41.1499 22.0549Z" fill="#FFE98F" stroke="#212189" stroke-width="1.55" stroke-linecap="round" stroke-linejoin="round"/>
<path d="M41.1499 22.0549C43.3701 22.0549 45.1699 20.2551 45.1699 18.0349C45.1699 15.8147 43.3701 14.0149 41.1499 14.0149C38.9297 14.0149 37.1299 15.8147 37.1299 18.0349C37.1299 20.2551 38.9297 22.0549 41.1499 22.0549Z" fill="#E6E6FC" stroke="#212189" stroke-width="1.55" stroke-linejoin="round"/>
<path d="M12.57 32.2149L5 37.4349L7.84 28.6749C7.99327 28.2063 8.25575 27.7809 8.60578 27.4337C8.95581 27.0865 9.38336 26.8275 9.85318 26.6781C10.323 26.5286 10.8216 26.493 11.3079 26.5742C11.7942 26.6553 12.2542 26.8509 12.65 27.1449V27.1449C13.0501 27.4387 13.374 27.824 13.5947 28.2686C13.8154 28.7132 13.9265 29.2042 13.9186 29.7005C13.9108 30.1968 13.7843 30.6841 13.5497 31.1215C13.3151 31.5589 12.9791 31.9338 12.57 32.2149Z" fill="#FCF9E8" stroke="#212189" stroke-width="1.55" stroke-linecap="round" stroke-linejoin="round"/>
<path d="M39.8102 51.6248L32.2402 56.8648L35.0902 48.1048C35.2435 47.6362 35.506 47.2108 35.856 46.8636C36.206 46.5164 36.6336 46.2574 37.1034 46.108C37.5732 45.9585 38.0718 45.9229 38.5581 46.0041C39.0444 46.0853 39.5044 46.2809 39.9002 46.5748C40.2958 46.8699 40.6154 47.2549 40.8327 47.698C41.05 48.141 41.1588 48.6295 41.15 49.1229C41.1412 49.6163 41.0151 50.1005 40.7821 50.5356C40.5492 50.9706 40.216 51.344 39.8102 51.6248V51.6248Z" fill="#FCF9E8" stroke="#212189" stroke-width="1.55" stroke-linecap="round" stroke-linejoin="round"/>
<path d="M52.4801 17.6548C52.3001 18.9548 54.4801 13.3148 54.0801 14.8448C52.0801 22.0648 48.1601 30.2948 40.4601 42.5048L38.7201 41.5748C37.4077 41.0189 36.1463 40.3497 34.9501 39.5748C34.7558 39.4328 34.5978 39.2469 34.4889 39.0323C34.38 38.8177 34.3232 38.5805 34.3232 38.3398C34.3232 38.0992 34.38 37.8619 34.4889 37.6473C34.5978 37.4327 34.7558 37.2469 34.9501 37.1048C40.5231 31.3902 45.0937 24.7777 48.4701 17.5448C48.6344 17.1783 48.9362 16.8911 49.3103 16.7452C49.6845 16.5992 50.1011 16.6063 50.4701 16.7648L52.4801 17.6548Z" fill="#E6E6FC"/>
<path d="M55.1696 8.43472C55.1796 8.46045 55.1796 8.489 55.1696 8.51472C55.1392 9.21107 55.0724 9.90535 54.9696 10.5947C54.9696 10.9147 54.8796 11.2347 54.8296 11.5947L54.7096 12.2347C54.7096 12.4447 54.6196 12.6447 54.5796 12.8547C54.4396 13.4947 54.2696 14.1647 54.0896 14.8547C48.9787 12.2621 44.3244 8.85413 40.3096 4.76472C40.9296 4.36472 41.5296 3.99472 42.1096 3.68472C42.6896 3.37472 43.3496 2.99472 43.9396 2.68472C44.3296 2.49472 44.7096 2.32472 45.0796 2.16472C45.6041 1.93353 46.1417 1.73318 46.6896 1.56472L47.2096 1.41472C48.4994 0.99473 49.8715 0.891824 51.2096 1.11472C51.3453 1.13742 51.4791 1.17085 51.6096 1.21472C51.9629 1.32026 52.2995 1.47512 52.6096 1.67472L52.9296 1.87472C53.1054 2.01064 53.2724 2.1576 53.4296 2.31472C53.5896 2.47472 53.7296 2.65472 53.8796 2.83472C54.0296 3.01472 54.0596 3.12472 54.1496 3.28472C54.1757 3.34013 54.2058 3.3936 54.2396 3.44472C54.9771 4.99926 55.2976 6.71889 55.1696 8.43472V8.43472Z" fill="#FFCA61" stroke="#212189" stroke-width="1.55" stroke-linecap="round" stroke-linejoin="round"/>
<path d="M33.7095 32.1848C35.9296 32.1848 37.7295 30.385 37.7295 28.1648C37.7295 25.9446 35.9296 24.1448 33.7095 24.1448C31.4893 24.1448 29.6895 25.9446 29.6895 28.1648C29.6895 30.385 31.4893 32.1848 33.7095 32.1848Z" fill="#A8A9FC" stroke="#212189" stroke-width="1.55" stroke-linejoin="round"/>
<path d="M41.1499 22.0549C43.3701 22.0549 45.1699 20.2551 45.1699 18.0349C45.1699 15.8147 43.3701 14.0149 41.1499 14.0149C38.9297 14.0149 37.1299 15.8147 37.1299 18.0349C37.1299 20.2551 38.9297 22.0549 41.1499 22.0549Z" fill="#A8A9FC" stroke="#212189" stroke-width="1.55" stroke-linejoin="round"/>
<path d="M55.1696 8.43472C55.1796 8.46045 55.1796 8.489 55.1696 8.51472C55.1392 9.21107 55.0724 9.90535 54.9696 10.5947C54.9696 10.9147 54.8796 11.2347 54.8296 11.5947L54.7096 12.2347C54.7096 12.4447 54.6196 12.6447 54.5796 12.8547C54.4396 13.4947 54.2696 14.1647 54.0896 14.8547C48.9787 12.2621 44.3244 8.85413 40.3096 4.76472C40.9296 4.36472 41.5296 3.99472 42.1096 3.68472C42.6896 3.37472 43.3496 2.99472 43.9396 2.68472C44.3296 2.49472 44.7096 2.32472 45.0796 2.16472C45.6041 1.93353 46.1417 1.73318 46.6896 1.56472L47.2096 1.41472C48.4994 0.99473 49.8715 0.891824 51.2096 1.11472C51.3453 1.13742 51.4791 1.17085 51.6096 1.21472C51.9629 1.32026 52.2995 1.47512 52.6096 1.67472L52.9296 1.87472C53.1054 2.01064 53.2724 2.1576 53.4296 2.31472C53.5896 2.47472 53.7296 2.65472 53.8796 2.83472C54.0296 3.01472 54.0596 3.12472 54.1496 3.28472C54.1757 3.34013 54.2058 3.3936 54.2396 3.44472C54.9771 4.99926 55.2976 6.71889 55.1696 8.43472V8.43472Z" stroke="#212189" stroke-width="1.55" stroke-linecap="round" stroke-linejoin="round"/>
<path d="M18.4194 25.0149C17.9694 25.5049 17.5394 26.0149 17.1094 26.5249" stroke="#212189" stroke-width="1.55" stroke-linecap="round" stroke-linejoin="round"/>
<path d="M27.5801 15.2648C31.4641 11.3507 35.7285 7.83329 40.3101 4.76485C40.9301 4.37485 41.5301 3.99485 42.1001 3.68485C42.6701 3.37485 43.3501 2.99485 43.9401 2.68485L45.0901 2.21485C45.6501 1.98485 46.1901 1.77485 46.7001 1.61485L47.2101 1.46485C48.5006 1.04831 49.8719 0.94547 51.2101 1.16485C51.3421 1.1853 51.4724 1.21538 51.6001 1.25485C51.9507 1.37165 52.2864 1.52941 52.6001 1.72485C52.7105 1.78901 52.8173 1.85911 52.9201 1.93485C53.0901 2.06485 53.2601 2.21485 53.4201 2.36485C53.5801 2.51485 53.7201 2.70485 53.8701 2.88485C53.9739 3.02613 54.0643 3.17678 54.1401 3.33485L54.2401 3.49485C54.9519 5.05971 55.2448 6.78269 55.0901 8.49485C55.1001 8.52057 55.1001 8.54913 55.0901 8.57485C55.0901 9.23485 54.9901 9.91485 54.8901 10.6648C54.8901 10.9748 54.8001 11.2948 54.7501 11.6148C54.7501 11.8348 54.6701 12.0448 54.6301 12.2548C54.5901 12.4648 54.5401 12.6748 54.5001 12.8848C54.3601 13.5248 54.2001 14.1948 54.0101 14.8848C52.5072 20.0472 50.4974 25.0482 48.0101 29.8148C46.3101 33.1948 44.2701 36.8615 41.8901 40.8148C41.7301 41.0948 41.5501 41.3648 41.3801 41.6548L40.3301 43.3548" stroke="#212189" stroke-width="1.55" stroke-linecap="round" stroke-linejoin="round"/>
<path d="M55.1694 8.43485C55.1794 8.46057 55.1794 8.48913 55.1694 8.51485C55.1694 9.17485 55.0694 9.85485 54.9694 10.6048C54.9694 10.9148 54.8794 11.2348 54.8294 11.5548C54.8294 11.7748 54.7494 11.9848 54.7094 12.1948C54.6694 12.4048 54.6194 12.6148 54.5794 12.8248C54.4394 13.4648 54.2794 14.1348 54.0894 14.8248C52.2794 21.5448 48.1894 30.5348 41.4394 41.5948L40.3894 43.2948C38.856 42.5748 37.4227 41.8482 36.0894 41.1148C30.5091 38.0538 25.3211 34.3265 20.6394 30.0148C19.3294 28.8048 18.1594 27.6348 17.1094 26.5248C17.5394 26.0048 17.9694 25.5248 18.4194 25.0148C26.9994 15.2148 34.4294 8.53485 40.3094 4.76485C40.9294 4.37485 41.5294 3.99485 42.0994 3.68485C42.6694 3.37485 43.3494 2.99485 43.9394 2.68485L45.0894 2.21485C45.6494 1.98485 46.1894 1.78485 46.6994 1.61485L47.2094 1.46485C48.4999 1.04831 49.8711 0.94547 51.2094 1.16485C51.3414 1.1853 51.4717 1.21538 51.5994 1.25485C51.95 1.37165 52.2857 1.52941 52.5994 1.72485C52.7098 1.78901 52.8166 1.85911 52.9194 1.93485C53.0894 2.06485 53.2594 2.21485 53.4194 2.36485C53.5794 2.51485 53.7194 2.70485 53.8694 2.88485C53.9732 3.02613 54.0636 3.17678 54.1394 3.33485L54.2394 3.49485C54.9684 5.03436 55.2886 6.73565 55.1694 8.43485Z" stroke="#212189" stroke-width="1.55" stroke-linecap="round" stroke-linejoin="round"/>
</g>
<defs>
<clipPath id="clip0_653_3581">
<rect width="60" height="60" fill="white"/>
</clipPath>
</defs>
</svg>
